<svg xmlns="http://www.w3.org/2000/svg" viewBox="0 0 816.94 233.08"><defs><style>.cls-1{fill:#923f1e;}.cls-2{fill:#e2dbdb;}</style></defs><title>Fichier 5</title><g id="Calque_2" data-name="Calque 2"><g id="Calque_1-2" data-name="Calque 1"><polyline class="cls-1" points="282.24 78.06 238.52 76.17 259.67 30.48"/><path class="cls-2" d="M0,142.72v-15.4H17V21.64H0V6.24H21.84Q38.6,27.89,55.08,49.43T88.32,92.61Q105.09,71,121.57,49.43T154.81,6.24h21.84v15.4h-17V127.32h17v15.4H129.46v-15.4h14V51.08c.13-1,.23-2.07.29-3.12s.17-2.07.3-3.12C143,46.28,142,47.77,141,49.33s-2.08,3.05-3.12,4.48L88.32,118.35,36.66,50.69c-.92-1.17-1.66-2.14-2.25-2.92a26.72,26.72,0,0,1-1.85-2.93c.13,1,.26,2.08.39,3.12a25.26,25.26,0,0,1,.2,3.12v76.24h14v15.4Z"/><path class="cls-2" d="M190.29,142.72v-15.4h16q13.46-32.17,27-63.66T260.29,0q13.45,32.17,27,63.66t27,63.66h16v15.4H287v-15.4h10.92q-4.1-9.75-8.09-19.3t-8.09-19.31h-42.9L230.65,108q-2.73,6.44-8.18,19.3h11.11v15.4ZM251.42,58.2q-3.22,8.29-5.95,15.11h29.64l-13.06-31-1.95-6.43c-.53,2.08-1,3.57-1.27,4.48s-.56,1.56-.68,2Q254.64,49.92,251.42,58.2Z"/><path class="cls-2" d="M480,149,380.2,42.89l-3.71-5.06.59,6.23v83.26h14v15.4H343.93v-15.4h17V21.64h-17V6.24h22.62l94.17,102,3.71,5.07-.59-6.24V21.64h-14V6.24H497v15.4H480Z"/><path class="cls-2" d="M607.25,138.82a68.91,68.91,0,0,1-76.14-15,68.45,68.45,0,0,1-20.47-49.13,68,68,0,0,1,5.46-27,70.19,70.19,0,0,1,15-22.32,69.55,69.55,0,0,1,22-15.11,68.6,68.6,0,0,1,54.11,0,71.25,71.25,0,0,1,37.43,37.43,66.91,66.91,0,0,1,5.56,27,66.65,66.65,0,0,1-5.56,27.1,69.55,69.55,0,0,1-15.11,22A70.35,70.35,0,0,1,607.25,138.82Zm-47.67-14.23a52.86,52.86,0,0,0,41.72,0,55.84,55.84,0,0,0,17.16-11.7,53.88,53.88,0,0,0,15.6-38.21,53.39,53.39,0,0,0-4.2-21.16A53.69,53.69,0,0,0,601.3,24.57a52.86,52.86,0,0,0-41.72,0,53.39,53.39,0,0,0-17,11.7A54.09,54.09,0,0,0,531,53.52a53.38,53.38,0,0,0-4.19,21.16A53.3,53.3,0,0,0,531,95.83a51.78,51.78,0,0,0,11.6,17.06A53.39,53.39,0,0,0,559.58,124.59Z"/><path class="cls-2" d="M800,149,700.15,42.89l-3.7-5.06.58,6.23v83.26h14v15.4H663.89v-15.4h17V21.64h-17V6.24H686.5l94.18,102,3.7,5.07-.59-6.24V21.64h-14V6.24h47.18v15.4H800Z"/><path class="cls-2" d="M149.6,232.34l28.5-65.46h5.2l29,65.46h-6l-8.17-18.85,2.7,1.39h-40.3l3.16-1.39-8,18.85Zm31-58.5-15.88,37.24L162.6,210h36L197,211.08l-16.25-37.24Z"/><path class="cls-2" d="M232.82,233.08c-5.44,0-9.58-1.47-12.39-4.41s-4.23-7.47-4.23-13.6V185.82h5.67V214.7q0,7.05,2.88,10.3t8.82,3.25a13.89,13.89,0,0,0,10.63-4.32q4-4.31,4-11.46V185.82h5.67v46.52h-5.57v-11h1.21a16.79,16.79,0,0,1-6.37,8.68A17.89,17.89,0,0,1,232.82,233.08Z"/><path class="cls-2" d="M280.35,233.08q-6.23,0-9.52-3.71T267.54,218V190.37h-9.29v-4.55h9.29v-13L273.2,171v14.85h13.74v4.55H273.2v26.74q0,5.85,1.86,8.45t5.94,2.6a13.15,13.15,0,0,0,3.3-.37,15.25,15.25,0,0,0,2.46-.84v5a14.29,14.29,0,0,1-2.88.78A19.17,19.17,0,0,1,280.35,233.08Z"/><path class="cls-2" d="M296.5,232.34V196.68c0-1.79,0-3.6-.13-5.43s-.27-3.63-.52-5.43h5.58l.74,10.68-1.12.09a13.84,13.84,0,0,1,3.35-6.45,15.85,15.85,0,0,1,5.57-3.85,16.83,16.83,0,0,1,6.5-1.3,16.37,16.37,0,0,1,2.27.14,13.09,13.09,0,0,1,2,.41l-.19,5.11a9.22,9.22,0,0,0-2.23-.46c-.74-.07-1.54-.1-2.41-.1a13,13,0,0,0-7.29,2,14.07,14.07,0,0,0-4.78,5.2,13.62,13.62,0,0,0-1.67,6.41v28.6Z"/><path class="cls-2" d="M328.07,174.4v-7.05h7.62v7.05Zm.93,57.94V185.82h5.66v46.52Z"/><path class="cls-2" d="M366.92,233.08a22.2,22.2,0,0,1-11.51-2.92,19.25,19.25,0,0,1-7.57-8.41,29.65,29.65,0,0,1-2.64-13,28.19,28.19,0,0,1,2.69-12.85,18.94,18.94,0,0,1,7.57-8.13,24.08,24.08,0,0,1,20.05-1.11,18.27,18.27,0,0,1,6.83,4.64L380,195.48a18.6,18.6,0,0,0-6.22-4.23,17.85,17.85,0,0,0-6.68-1.34q-7.62,0-11.88,4.82T351,208.85q0,9.28,4.28,14.34t11.88,5.06a18.21,18.21,0,0,0,12.9-5.57l2.33,4.18a18.74,18.74,0,0,1-7,4.6A23.37,23.37,0,0,1,366.92,233.08Z"/><path class="cls-2" d="M410.79,233.08q-10.59,0-16.76-6.31t-6.17-17.55a27.89,27.89,0,0,1,2.74-12.81,20.52,20.52,0,0,1,7.66-8.41,21.39,21.39,0,0,1,11.42-3,19.61,19.61,0,0,1,10.49,2.64,17.49,17.49,0,0,1,6.59,7.52,26.61,26.61,0,0,1,2.32,11.56v2.6H391.94v-4.08h33.61l-1.58,1.2q0-7.89-3.62-12.39t-10.77-4.5c-5.07,0-9,1.75-11.88,5.24s-4.27,8.13-4.27,13.88v.65q0,9.28,4.59,14.11t12.86,4.83a24,24,0,0,0,8-1.3A20.77,20.77,0,0,0,426,222.5l2.32,4.17a19.59,19.59,0,0,1-7.71,4.74A29.48,29.48,0,0,1,410.79,233.08Z"/><path class="cls-2" d="M492.55,233.08a43.52,43.52,0,0,1-13.93-2,33.89,33.89,0,0,1-10.77-5.95l2.42-4.73a43.8,43.8,0,0,0,6.54,4.27,26.46,26.46,0,0,0,7,2.46,42.53,42.53,0,0,0,8.64.79q8.63,0,13-3.39a10.8,10.8,0,0,0,4.36-9q0-4.83-3-7.38t-10.54-4l-9.47-2q-9-1.86-13.41-5.94T469,185.08a17.13,17.13,0,0,1,3-10,19.2,19.2,0,0,1,8.26-6.59,30.23,30.23,0,0,1,12.26-2.32,36.49,36.49,0,0,1,12.67,2.09,26.6,26.6,0,0,1,9.8,6.17L512.6,179a27.84,27.84,0,0,0-9.19-5.89,31,31,0,0,0-11-1.81q-8.08,0-12.82,3.66a11.89,11.89,0,0,0-4.73,9.89,10.09,10.09,0,0,0,3,7.8q3,2.79,9.79,4.18l9.57,1.95q9.56,2,14,5.71t4.46,10.72a15.82,15.82,0,0,1-2.83,9.33,18.29,18.29,0,0,1-8,6.27A31.14,31.14,0,0,1,492.55,233.08Z"/><path class="cls-2" d="M524.76,232.34V166.88H564.5v4.92h-34v25h32v4.92h-32v30.64Z"/><path class="cls-2" d="M572.57,232.34V166.88H612.3v4.92h-34v25h32v4.92h-32v30.64Z"/><path class="cls-2" d="M621.57,232.34V166.88H661.3v4.92h-34v25h32v4.92h-32v30.64Z"/></g></g></svg>