<!--?xml version="1.0" standalone="no"?-->
              <svg id="sw-js-blob-svg" viewBox="0 0 100 100" xmlns="http://www.w3.org/2000/svg" version="1.1">
                    <defs> 
                        <linearGradient id="sw-gradient" x1="0" x2="1" y1="1" y2="0">
                            <stop id="stop1" stop-color="rgba(85, 117, 113, 1)" offset="0%"></stop>
                            <stop id="stop2" stop-color="rgba(251, 168, 31, 1)" offset="100%"></stop>
                        </linearGradient>
                    </defs>
                <path fill="rgba(85, 117, 113, 1)" d="M26.1,-30.7C32.8,-25.6,36.4,-16.3,37.7,-6.9C39.1,2.5,38.1,12,34.3,20.8C30.4,29.6,23.5,37.6,15.1,40C6.7,42.4,-3.1,39.1,-12.8,35.5C-22.5,31.8,-32,27.9,-36.4,20.7C-40.8,13.6,-40.2,3.3,-38.2,-6.5C-36.2,-16.3,-32.7,-25.5,-26.1,-30.7C-19.5,-35.8,-9.7,-36.9,0,-36.9C9.7,-36.9,19.5,-35.9,26.1,-30.7Z" width="100%" height="100%" transform="translate(50 50)" style="transition: all 0.3s ease 0s;" stroke-width="0" stroke="url(#sw-gradient)"></path>
              </svg>