<svg xmlns="http://www.w3.org/2000/svg" viewBox="0 0 90 22"><defs><style>.cls-1,.cls-2{fill:#557571;}.cls-1{fill-rule:evenodd;}</style></defs><title>dots_2</title><g id="Calque_2" data-name="Calque 2"><g id="Calque_1-2" data-name="Calque 1"><path class="cls-1" d="M0,20a1,1,0,0,1,1,1,1,1,0,0,1-1,1"/><circle class="cls-2" cx="6" cy="21" r="1"/><circle class="cls-2" cx="12" cy="21" r="1"/><circle class="cls-2" cx="18" cy="21" r="1"/><circle class="cls-2" cx="24" cy="21" r="1"/><circle class="cls-2" cx="30" cy="21" r="1"/><circle class="cls-2" cx="36" cy="21" r="1"/><circle class="cls-2" cx="42" cy="21" r="1"/><circle class="cls-2" cx="48" cy="21" r="1"/><circle class="cls-2" cx="54" cy="21" r="1"/><circle class="cls-2" cx="60" cy="21" r="1"/><circle class="cls-2" cx="66" cy="21" r="1"/><circle class="cls-2" cx="72" cy="21" r="1"/><circle class="cls-2" cx="78" cy="21" r="1"/><circle class="cls-2" cx="84" cy="21" r="1"/><path class="cls-1" d="M90,22a1,1,0,0,1,0-2"/><path class="cls-1" d="M0,15a1,1,0,0,1,1,1,1,1,0,0,1-1,1"/><circle class="cls-2" cx="6" cy="16" r="1"/><circle class="cls-2" cx="12" cy="16" r="1"/><circle class="cls-2" cx="18" cy="16" r="1"/><circle class="cls-2" cx="24" cy="16" r="1"/><circle class="cls-2" cx="30" cy="16" r="1"/><circle class="cls-2" cx="36" cy="16" r="1"/><circle class="cls-2" cx="42" cy="16" r="1"/><circle class="cls-2" cx="48" cy="16" r="1"/><circle class="cls-2" cx="54" cy="16" r="1"/><circle class="cls-2" cx="60" cy="16" r="1"/><circle class="cls-2" cx="66" cy="16" r="1"/><circle class="cls-2" cx="72" cy="16" r="1"/><circle class="cls-2" cx="78" cy="16" r="1"/><circle class="cls-2" cx="84" cy="16" r="1"/><path class="cls-1" d="M90,17a1,1,0,0,1,0-2"/><path class="cls-1" d="M0,10a1,1,0,0,1,1,1,1,1,0,0,1-1,1"/><circle class="cls-2" cx="6" cy="11" r="1"/><circle class="cls-2" cx="12" cy="11" r="1"/><circle class="cls-2" cx="18" cy="11" r="1"/><circle class="cls-2" cx="24" cy="11" r="1"/><circle class="cls-2" cx="30" cy="11" r="1"/><circle class="cls-2" cx="36" cy="11" r="1"/><circle class="cls-2" cx="42" cy="11" r="1"/><circle class="cls-2" cx="48" cy="11" r="1"/><circle class="cls-2" cx="54" cy="11" r="1"/><circle class="cls-2" cx="60" cy="11" r="1"/><circle class="cls-2" cx="66" cy="11" r="1"/><circle class="cls-2" cx="72" cy="11" r="1"/><circle class="cls-2" cx="78" cy="11" r="1"/><circle class="cls-2" cx="84" cy="11" r="1"/><path class="cls-1" d="M90,12a1,1,0,0,1,0-2"/><path class="cls-1" d="M0,5A1,1,0,0,1,1,6,1,1,0,0,1,0,7"/><circle class="cls-2" cx="6" cy="6" r="1"/><circle class="cls-2" cx="12" cy="6" r="1"/><circle class="cls-2" cx="18" cy="6" r="1"/><circle class="cls-2" cx="24" cy="6" r="1"/><circle class="cls-2" cx="30" cy="6" r="1"/><circle class="cls-2" cx="36" cy="6" r="1"/><circle class="cls-2" cx="42" cy="6" r="1"/><circle class="cls-2" cx="48" cy="6" r="1"/><circle class="cls-2" cx="54" cy="6" r="1"/><circle class="cls-2" cx="60" cy="6" r="1"/><circle class="cls-2" cx="66" cy="6" r="1"/><circle class="cls-2" cx="72" cy="6" r="1"/><circle class="cls-2" cx="78" cy="6" r="1"/><circle class="cls-2" cx="84" cy="6" r="1"/><path class="cls-1" d="M90,7a1,1,0,0,1,0-2"/><path class="cls-1" d="M0,0A1,1,0,0,1,1,1,1,1,0,0,1,0,2"/><circle class="cls-2" cx="6" cy="1" r="1"/><circle class="cls-2" cx="12" cy="1" r="1"/><circle class="cls-2" cx="18" cy="1" r="1"/><circle class="cls-2" cx="24" cy="1" r="1"/><circle class="cls-2" cx="30" cy="1" r="1"/><circle class="cls-2" cx="36" cy="1" r="1"/><circle class="cls-2" cx="42" cy="1" r="1"/><circle class="cls-2" cx="48" cy="1" r="1"/><circle class="cls-2" cx="54" cy="1" r="1"/><circle class="cls-2" cx="60" cy="1" r="1"/><circle class="cls-2" cx="66" cy="1" r="1"/><circle class="cls-2" cx="72" cy="1" r="1"/><circle class="cls-2" cx="78" cy="1" r="1"/><circle class="cls-2" cx="84" cy="1" r="1"/><path class="cls-1" d="M90,2a1,1,0,0,1,0-2"/></g></g></svg>