<svg xmlns="http://www.w3.org/2000/svg" viewBox="0 0 901.52 252.52"><defs><style>.cls-1{fill:#ce7d5d;}.cls-2{fill:#313131;}</style></defs><title>Fichier 10</title><g id="Calque_2" data-name="Calque 2"><g id="Calque_1-2" data-name="Calque 1"><polyline class="cls-1" points="323.56 78.06 279.84 76.17 300.99 30.48"/><path class="cls-2" d="M41.32,142.72v-15.4h17V21.64h-17V6.24H63.16Q79.91,27.89,96.4,49.43t33.24,43.18Q146.41,71,162.89,49.43T196.13,6.24H218v15.4H201V127.32h17v15.4H170.78v-15.4h14V51.08c.13-1,.23-2.07.29-3.12s.17-2.07.3-3.12c-1,1.44-2.08,2.93-3.12,4.49s-2.08,3.05-3.12,4.48l-49.53,64.54L78,50.69c-.92-1.17-1.66-2.14-2.25-2.92a26.72,26.72,0,0,1-1.85-2.93L74.27,48a25.26,25.26,0,0,1,.2,3.12v76.24h14v15.4Z"/><path class="cls-2" d="M231.61,142.72v-15.4h16q13.46-32.17,27-63.66T301.61,0q13.45,32.17,27,63.66t27,63.66h16v15.4H328.32v-15.4h10.92q-4.1-9.75-8.09-19.3t-8.09-19.31h-42.9L272,108q-2.73,6.44-8.18,19.3H274.9v15.4ZM292.74,58.2q-3.23,8.29-5.95,15.11h29.64l-13.06-31-1.95-6.43c-.53,2.08-.95,3.57-1.27,4.48s-.56,1.56-.68,2Q296,49.92,292.74,58.2Z"/><path class="cls-2" d="M521.35,149,421.52,42.89l-3.71-5.06.59,6.23v83.26h14v15.4H385.25v-15.4h17V21.64h-17V6.24h22.62l94.17,102,3.71,5.07-.59-6.24V21.64h-14V6.24h47.19v15.4h-17Z"/><path class="cls-2" d="M648.57,138.82a68.91,68.91,0,0,1-76.14-15A68.45,68.45,0,0,1,552,74.68a67.85,67.85,0,0,1,5.46-27,70.19,70.19,0,0,1,15-22.32,69.55,69.55,0,0,1,22-15.11,68.6,68.6,0,0,1,54.11,0A71.25,71.25,0,0,1,686,47.67a66.91,66.91,0,0,1,5.56,27,66.65,66.65,0,0,1-5.56,27.1,69.55,69.55,0,0,1-15.11,22A70.35,70.35,0,0,1,648.57,138.82ZM600.9,124.59a52.86,52.86,0,0,0,41.72,0,55.84,55.84,0,0,0,17.16-11.7,53.88,53.88,0,0,0,15.6-38.21,53.39,53.39,0,0,0-4.2-21.16,53.69,53.69,0,0,0-28.56-28.95,52.86,52.86,0,0,0-41.72,0,53.39,53.39,0,0,0-17,11.7,54.09,54.09,0,0,0-11.6,17.25,53.38,53.38,0,0,0-4.19,21.16,53.3,53.3,0,0,0,4.19,21.15,51.78,51.78,0,0,0,11.6,17.06A53.39,53.39,0,0,0,600.9,124.59Z"/><path class="cls-2" d="M841.3,149,741.47,42.89l-3.7-5.06.58,6.23v83.26h14v15.4H705.21v-15.4h17V21.64h-17V6.24h22.61l94.18,102,3.7,5.07-.59-6.24V21.64h-14V6.24h47.18v15.4h-17Z"/><path class="cls-2" d="M0,229v-3.66H7.24q6.86-16.44,13.81-32.56t13.81-32.56q6.86,16.44,13.77,32.56t13.86,32.56h7.24V229H51.68v-3.66h6.86l-5.21-12.31c-1.73-4.07-3.46-8.18-5.22-12.31H21.61q-2.82,6.76-5.17,12.31t-5.26,12.31h7V229Zm28.61-44.68q-2.76,6.43-5.4,12.74h23.3l-10.8-25.57-.85-2.72a8,8,0,0,1-.42,1.41c-.16.38-.33.81-.52,1.31Q31.38,177.92,28.61,184.34Z"/><path class="cls-2" d="M104,227.1a17,17,0,0,1-9.35,2.68,11.23,11.23,0,0,1-8.18-2.92,10.75,10.75,0,0,1-3.19-7.61v-21.8h-7v-3.66H87.11v24.43a8.33,8.33,0,0,0,2.21,5.31,8.21,8.21,0,0,0,6,2.39,15.85,15.85,0,0,0,5.5-.94,14.7,14.7,0,0,0,4.65-2.72,11.84,11.84,0,0,0,4.33-9.21v-15.6h-7v-3.66h10.81v31.85h6.67V229h-10l-.19-4.88v-4.23A15.49,15.49,0,0,1,104,227.1Z"/><path class="cls-2" d="M135,229V197.54h-8.17v-3.75H135V170.86h3.86v22.93h10.9v3.75h-10.9v27.82h7.7V229Z"/><path class="cls-2" d="M156.36,229v-3.66h7.33V197.45h-6.76v-3.66h9.86l.29,5c.06,1.06.09,1.75.09,2.06s0,1,.09,2.07a15.69,15.69,0,0,1,6.39-7.23,17.3,17.3,0,0,1,4.09-1.88A17,17,0,0,1,182,193l-.19,3.86a15.5,15.5,0,0,0-5.31.89,14.1,14.1,0,0,0-4.37,2.49,11.05,11.05,0,0,0-3.38,4.09,12,12,0,0,0-1.22,5.4v15.6h6.95V229Z"/><path class="cls-2" d="M188.59,229v-3.66h7.24V197.45h-7.24v-3.66h11.09v31.57h7V229ZM200,183.5a3,3,0,0,1-2.16.89,3.1,3.1,0,0,1,0-6.2,3,3,0,0,1,2.16.89,3.07,3.07,0,0,1,0,4.42Z"/><path class="cls-2" d="M238,228.6a18,18,0,0,1-6.3,1.08,18.21,18.21,0,0,1-7.18-1.41,17.11,17.11,0,0,1-5.78-3.94,16.6,16.6,0,0,1-4-5.78,18.91,18.91,0,0,1,0-14.33,17.12,17.12,0,0,1,3.94-5.83,19.72,19.72,0,0,1,5.88-3.9,17.73,17.73,0,0,1,7.18-1.46,18.73,18.73,0,0,1,6.39,1.09,18.36,18.36,0,0,1,5.36,3v9.2H239.9v-6.95a13.39,13.39,0,0,0-3.76-1.88,14.45,14.45,0,0,0-4.42-.66,14.66,14.66,0,0,0-5.63,1.08,13.55,13.55,0,0,0-4.51,3,13.91,13.91,0,0,0-3.29,4.75,15.35,15.35,0,0,0,0,11.56,13.74,13.74,0,0,0,3.19,4.65,14.21,14.21,0,0,0,4.56,3,15.06,15.06,0,0,0,10.66.28,14.79,14.79,0,0,0,4.23-2.35l2.45,2.91A20.19,20.19,0,0,1,238,228.6Z"/><path class="cls-2" d="M275.23,228.37a17.27,17.27,0,0,1-6.77,1.31,18.27,18.27,0,0,1-13.06-5.35,18.59,18.59,0,0,1-3.94-5.83,17.91,17.91,0,0,1-1.41-7.14,18.34,18.34,0,0,1,1.41-7.14,17.12,17.12,0,0,1,3.94-5.83,19.72,19.72,0,0,1,5.88-3.9,17.76,17.76,0,0,1,7.18-1.46,15.64,15.64,0,0,1,5.55,1,14.47,14.47,0,0,1,4.7,2.87,17.78,17.78,0,0,1,3.47,4.08,24,24,0,0,1,2.45,5.22q-7.33,2.91-14.61,5.73t-14.62,5.83a13.88,13.88,0,0,0,5.17,5.92,15,15,0,0,0,13.35,1.22,14.43,14.43,0,0,0,4.51-2.91l2.34,2.82A19.07,19.07,0,0,1,275.23,228.37Zm-13.3-30.07a14.5,14.5,0,0,0-4.93,4,14.7,14.7,0,0,0-2.63,5.49,14,14,0,0,0-.09,6.25q6.37-2.54,12.73-5t12.73-5a14.43,14.43,0,0,0-4.65-5.22,11.53,11.53,0,0,0-6.63-2A14.14,14.14,0,0,0,261.93,198.3Z"/><path class="cls-2" d="M353.22,229v-8.17a10.83,10.83,0,0,1-2,3.24,15.37,15.37,0,0,1-3.24,2.77,16.46,16.46,0,0,1-4.46,2.07,18.57,18.57,0,0,1-18.47-4.6,18.59,18.59,0,0,1-3.94-5.83,17.91,17.91,0,0,1-1.41-7.14,18.34,18.34,0,0,1,1.41-7.14,17.12,17.12,0,0,1,3.94-5.83,19.72,19.72,0,0,1,5.88-3.9,18,18,0,0,1,7.28-1.46,17.68,17.68,0,0,1,5.12.76,18.71,18.71,0,0,1,4.46,2,14.46,14.46,0,0,1,3.2,2.82,15.35,15.35,0,0,1,2,3.1q-.09-2.53-.09-4.14V162.21h-6.67v-3.66H356.7v66.81h6.95V229Zm-20.86-31.1a14.57,14.57,0,0,0-4.6,3.1,14.85,14.85,0,0,0-3.06,16.16,13.23,13.23,0,0,0,3.25,4.61,14.06,14.06,0,0,0,4.55,3.05,14.64,14.64,0,0,0,5.69,1.08,14.35,14.35,0,0,0,5.59-1.08,15.29,15.29,0,0,0,4.65-3.05,13.08,13.08,0,0,0,3.24-4.61,14.84,14.84,0,0,0,0-11.69,14.9,14.9,0,0,0-3.29-4.75,14.12,14.12,0,0,0-4.61-2.91,15,15,0,0,0-5.54-1A14.71,14.71,0,0,0,332.36,197.92Z"/><path class="cls-2" d="M395.42,228.37a17.31,17.31,0,0,1-6.77,1.31,18.23,18.23,0,0,1-13.06-5.35,18.62,18.62,0,0,1-3.95-5.83,17.91,17.91,0,0,1-1.41-7.14,18.34,18.34,0,0,1,1.41-7.14,17.15,17.15,0,0,1,3.95-5.83,19.8,19.8,0,0,1,5.87-3.9,17.77,17.77,0,0,1,7.19-1.46,15.58,15.58,0,0,1,5.54,1,14.37,14.37,0,0,1,4.7,2.87,17.57,17.57,0,0,1,3.48,4.08,24,24,0,0,1,2.44,5.22q-7.32,2.91-14.61,5.73t-14.61,5.83a13.88,13.88,0,0,0,5.17,5.92,14.95,14.95,0,0,0,13.34,1.22,14.43,14.43,0,0,0,4.51-2.91L401,224.8A19.34,19.34,0,0,1,395.42,228.37Zm-13.3-30.07a14.4,14.4,0,0,0-4.93,4,14.57,14.57,0,0,0-2.64,5.49,14,14,0,0,0-.09,6.25q6.39-2.54,12.73-5t12.74-5a14.37,14.37,0,0,0-4.66-5.22,11.52,11.52,0,0,0-6.62-2A14.11,14.11,0,0,0,382.12,198.3Z"/><path class="cls-2" d="M439.86,229v-3.66h6.95V162.21h-6.67v-3.66h10.53v66.81H458V229Z"/><path class="cls-2" d="M471.67,169.54a13.84,13.84,0,0,1-3.9,5.92L466,173.58a10.9,10.9,0,0,0,2.87-4.65,11.94,11.94,0,0,0,.23-6.06l1.46-.33c.47-.09,1-.2,1.55-.33A14.14,14.14,0,0,1,471.67,169.54Z"/><path class="cls-2" d="M480,229v-3.66h7.24V197.45H480v-3.66h11.09v31.57h7.05V229Zm11.37-45.52a3,3,0,0,1-2.16.89,3,3,0,0,1-2.07-.89,3.09,3.09,0,0,1,0-4.42,3,3,0,0,1,2.07-.89,3,3,0,0,1,2.16.89,3.07,3.07,0,0,1,0,4.42Z"/><path class="cls-2" d="M504.69,229v-3.66H512V197.45h-6.76v-3.66h9.87l.09,3.38c.06,1.06.12,2,.19,2.87s.12,1.8.19,2.86a15.63,15.63,0,0,1,6-7.09A17.48,17.48,0,0,1,531,193a11.58,11.58,0,0,1,7.8,2.59,10.08,10.08,0,0,1,3.47,6.81,16.41,16.41,0,0,1,6.06-6.76,17.36,17.36,0,0,1,9.17-2.64c3.5,0,6.24,1,8.22,2.92a10.88,10.88,0,0,1,3.15,7.61v21.8h7V229h-18v-3.66H565V204.59a8.37,8.37,0,0,0-2.21-5.31,8.21,8.21,0,0,0-6-2.39,16,16,0,0,0-10,3.47,13.65,13.65,0,0,0-3.2,4,11.41,11.41,0,0,0-1.31,5v16h7V229H531.19v-3.66h7.33V204.59a8.37,8.37,0,0,0-2.21-5.31,8.21,8.21,0,0,0-6-2.39,16.34,16.34,0,0,0-5.55.94,13.95,13.95,0,0,0-7.75,6.76,11.45,11.45,0,0,0-1.17,5.17v15.6h7V229Z"/><path class="cls-2" d="M616,229v-8.17a10.63,10.63,0,0,1-2,3.24,15.37,15.37,0,0,1-3.24,2.77,16.46,16.46,0,0,1-4.46,2.07,18.57,18.57,0,0,1-18.47-4.6,18.59,18.59,0,0,1-3.94-5.83,17.91,17.91,0,0,1-1.41-7.14,18.46,18.46,0,0,1,5.35-13,19.84,19.84,0,0,1,5.88-3.9,18,18,0,0,1,7.28-1.46,16.55,16.55,0,0,1,9.49,2.68,14.91,14.91,0,0,1,5.54,6.35c0-1.32,0-2.68.1-4.09s.15-2.8.28-4.18h3.1v31.57h7V229Zm-21-31.1a12.58,12.58,0,0,0-4.6,3.2,13.83,13.83,0,0,0-3.06,4.6,14.68,14.68,0,0,0-1.08,5.64,14.38,14.38,0,0,0,1.22,5.92,14.2,14.2,0,0,0,3.38,4.7,14.27,14.27,0,0,0,10.06,3.94,14.75,14.75,0,0,0,5.64-1.08,14,14,0,0,0,4.6-3.05,14.32,14.32,0,0,0,3.24-4.65,14.75,14.75,0,0,0,0-11.56,14.13,14.13,0,0,0-7.84-7.71,14.75,14.75,0,0,0-5.64-1.08A15.38,15.38,0,0,0,595,197.92Z"/><path class="cls-2" d="M640.39,244a14.39,14.39,0,0,0,5.07,3.33,16.89,16.89,0,0,0,6.48,1.27,13.15,13.15,0,0,0,5.5-1.17A13.58,13.58,0,0,0,662,244a16.94,16.94,0,0,0,3-5.22,19.34,19.34,0,0,0,1.12-6.72v-6.58c0-.62,0-1.31,0-2.06s.05-1.54.05-2.35a10.31,10.31,0,0,1-2,3.29,15.18,15.18,0,0,1-3.15,2.63,16.07,16.07,0,0,1-4.42,2,18.56,18.56,0,0,1-5.17.7,18,18,0,0,1-7.28-1.45,19.17,19.17,0,0,1-5.87-4,17.44,17.44,0,0,1-4-5.73,17.91,17.91,0,0,1-1.41-7.14,18.41,18.41,0,0,1,5.36-13,19.8,19.8,0,0,1,5.87-3.9,18,18,0,0,1,7.28-1.46,16.66,16.66,0,0,1,9.31,2.64,15,15,0,0,1,5.73,6.39c0-1.38,0-2.74.09-4.09s.16-2.74.29-4.18h10.05v3.66h-7v34.77a23.58,23.58,0,0,1-1.41,8.41,18.21,18.21,0,0,1-3.86,6.25A17.65,17.65,0,0,1,659,251a18.17,18.17,0,0,1-7,1.55,21.61,21.61,0,0,1-8.13-1.46,19.23,19.23,0,0,1-6.25-4Zm5.16-46a13.13,13.13,0,0,0-4.6,3.24,13.79,13.79,0,0,0-3.05,4.56,14.14,14.14,0,0,0-1.09,5.59,14.29,14.29,0,0,0,1.18,5.78,15,15,0,0,0,3.15,4.65,14,14,0,0,0,4.6,3.05,15,15,0,0,0,5.73,1.08,14.25,14.25,0,0,0,5.78-1.17,14.81,14.81,0,0,0,4.65-3.15,13.57,13.57,0,0,0,3.11-4.51,14.39,14.39,0,0,0,1.12-5.73,14,14,0,0,0-1.22-5.83,15.91,15.91,0,0,0-3.29-4.79,14.07,14.07,0,0,0-4.6-2.91,15,15,0,0,0-5.55-1A14.69,14.69,0,0,0,645.55,198Z"/><path class="cls-2" d="M683.52,229v-3.66h7.23V197.45h-7.23v-3.66H694.6v31.57h7V229Zm11.37-45.52a3.08,3.08,0,0,1-2.16.89,3.1,3.1,0,0,1,0-6.2,3.08,3.08,0,0,1,2.16.89,3.07,3.07,0,0,1,0,4.42Z"/><path class="cls-2" d="M708.23,229v-3.66h7.33V197.45h-6.77v-3.66h9.87l.09,3.38c.06,1.06.13,2,.19,2.87s.13,1.8.19,2.86a15.88,15.88,0,0,1,6-7.14,16.68,16.68,0,0,1,9.4-2.73,11.29,11.29,0,0,1,8.18,2.92,10.79,10.79,0,0,1,3.19,7.61v21.8h7V229H734.73v-3.66h7.33V204.59a8.43,8.43,0,0,0-2.21-5.31,8.25,8.25,0,0,0-6-2.39,16.24,16.24,0,0,0-5.54.94,13.95,13.95,0,0,0-7.75,6.76,11.32,11.32,0,0,0-1.18,5.17v15.6h7V229Z"/><path class="cls-2" d="M793,229v-8.17a10.83,10.83,0,0,1-2,3.24,15.37,15.37,0,0,1-3.24,2.77,16.67,16.67,0,0,1-4.47,2.07,18.54,18.54,0,0,1-18.46-4.6,18.62,18.62,0,0,1-3.95-5.83,17.91,17.91,0,0,1-1.41-7.14,18.41,18.41,0,0,1,5.36-13,19.8,19.8,0,0,1,5.87-3.9A18,18,0,0,1,778,193a16.53,16.53,0,0,1,9.49,2.68,14.94,14.94,0,0,1,5.55,6.35c0-1.32,0-2.68.09-4.09s.16-2.8.28-4.18h3.11v31.57h6.95V229Zm-21-31.1a12.66,12.66,0,0,0-4.6,3.2,13.65,13.65,0,0,0-3,4.6,14.5,14.5,0,0,0-1.09,5.64,14.23,14.23,0,0,0,1.23,5.92,14.06,14.06,0,0,0,3.38,4.7,14.32,14.32,0,0,0,4.51,2.91,14.53,14.53,0,0,0,5.54,1,14.68,14.68,0,0,0,5.64-1.08,14,14,0,0,0,4.61-3.05,14.63,14.63,0,0,0,3.24-4.65,14.86,14.86,0,0,0,0-11.56,14.19,14.19,0,0,0-7.85-7.71,14.68,14.68,0,0,0-5.64-1.08A15.38,15.38,0,0,0,772,197.92Z"/><path class="cls-2" d="M810,229v-3.66h7.23V197.45H810v-3.66h11.09v31.57h7V229Zm11.37-45.52a3.08,3.08,0,0,1-2.16.89,3.1,3.1,0,0,1,0-6.2,3.08,3.08,0,0,1,2.16.89,3.07,3.07,0,0,1,0,4.42Z"/><path class="cls-2" d="M834.71,229v-3.66H842V197.45h-6.77v-3.66h9.87l.28,5c.06,1.06.1,1.75.1,2.06s0,1,.09,2.07a15.64,15.64,0,0,1,2.68-4.18,15.44,15.44,0,0,1,3.71-3.05,17.4,17.4,0,0,1,8.36-2.64l-.18,3.86a15.46,15.46,0,0,0-5.31.89,14.1,14.1,0,0,0-4.37,2.49,11.08,11.08,0,0,0-3.39,4.09,12.15,12.15,0,0,0-1.22,5.4v15.6h7V229Z"/><path class="cls-2" d="M892.12,228.37a17.23,17.23,0,0,1-6.76,1.31,18.23,18.23,0,0,1-13.06-5.35,18.45,18.45,0,0,1-3.95-5.83,17.91,17.91,0,0,1-1.41-7.14,18.34,18.34,0,0,1,1.41-7.14,17,17,0,0,1,3.95-5.83,19.67,19.67,0,0,1,5.87-3.9,17.77,17.77,0,0,1,7.19-1.46,15.58,15.58,0,0,1,5.54,1,14.47,14.47,0,0,1,4.7,2.87,17.82,17.82,0,0,1,3.48,4.08,24.47,24.47,0,0,1,2.44,5.22q-7.34,2.91-14.61,5.73t-14.61,5.83a13.86,13.86,0,0,0,5.16,5.92,15,15,0,0,0,13.35,1.22,14.43,14.43,0,0,0,4.51-2.91l2.35,2.82A19.26,19.26,0,0,1,892.12,228.37ZM878.83,198.3a14.44,14.44,0,0,0-4.94,4,14.7,14.7,0,0,0-2.63,5.49,14,14,0,0,0-.09,6.25q6.39-2.54,12.73-5t12.73-5a14.25,14.25,0,0,0-4.65-5.22,11.52,11.52,0,0,0-6.62-2A14.11,14.11,0,0,0,878.83,198.3Z"/></g></g></svg>