<svg xmlns="http://www.w3.org/2000/svg" viewBox="0 0 908.38 252.52"><defs><style>.cls-1{fill:#ce7d5d;}.cls-2,.cls-3{fill:#313131;}.cls-3{font-size:93.97px;font-family:JosefinSlab-Regular, Josefin Slab;}</style></defs><title>Fichier 8</title><g id="Calque_2" data-name="Calque 2"><g id="Calque_1-2" data-name="Calque 1"><polyline class="cls-1" points="326.84 78.06 283.13 76.17 304.27 30.48"/><path class="cls-2" d="M44.61,142.72v-15.4h17V21.64h-17V6.24H66.45Q83.21,27.89,99.69,49.43t33.24,43.18Q149.7,71,166.18,49.43T199.42,6.24h21.84v15.4h-17V127.32h17v15.4H174.07v-15.4h14V51.08c.13-1,.23-2.07.29-3.12s.16-2.07.3-3.12c-1,1.44-2.09,2.93-3.12,4.49s-2.08,3.05-3.12,4.48l-49.53,64.54L81.26,50.69c-.91-1.17-1.65-2.14-2.24-2.92a26.72,26.72,0,0,1-1.85-2.93c.13,1,.26,2.08.39,3.12a25.24,25.24,0,0,1,.19,3.12v76.24h14v15.4Z"/><path class="cls-2" d="M234.9,142.72v-15.4h16q13.46-32.17,27-63.66T304.9,0q13.46,32.17,27,63.66t27,63.66h16v15.4H331.61v-15.4h10.92q-4.09-9.75-8.09-19.3t-8.09-19.31h-42.9L275.26,108l-8.19,19.3h11.12v15.4ZM296,58.2q-3.22,8.29-5.95,15.11h29.64l-13.07-31-1.95-6.43c-.52,2.08-.94,3.57-1.26,4.48s-.56,1.56-.69,2Q299.26,49.92,296,58.2Z"/><path class="cls-2" d="M524.64,149,424.81,42.89l-3.71-5.06.59,6.23v83.26h14v15.4H388.54v-15.4h17V21.64h-17V6.24h22.62l94.17,102,3.71,5.07-.59-6.24V21.64h-14V6.24H541.6v15.4h-17Z"/><path class="cls-2" d="M651.86,138.82a68.91,68.91,0,0,1-76.14-15,69.34,69.34,0,0,1-15-76.14,70.38,70.38,0,0,1,15-22.32,69.55,69.55,0,0,1,22-15.11,68.6,68.6,0,0,1,54.11,0,71.25,71.25,0,0,1,37.43,37.43,66.91,66.91,0,0,1,5.56,27,66.65,66.65,0,0,1-5.56,27.1,69.55,69.55,0,0,1-15.11,22A70.35,70.35,0,0,1,651.86,138.82Zm-47.68-14.23a52.88,52.88,0,0,0,41.73,0,55.84,55.84,0,0,0,17.16-11.7,53.81,53.81,0,0,0,15.59-38.21,53.38,53.38,0,0,0-4.19-21.16,53.69,53.69,0,0,0-28.56-28.95,52.88,52.88,0,0,0-41.73,0,53.46,53.46,0,0,0-17,11.7,54.09,54.09,0,0,0-11.6,17.25,53.38,53.38,0,0,0-4.19,21.16,53.3,53.3,0,0,0,4.19,21.15,51.78,51.78,0,0,0,11.6,17.06A53.46,53.46,0,0,0,604.18,124.59Z"/><path class="cls-2" d="M844.59,149,744.76,42.89l-3.7-5.06.58,6.23v83.26h14v15.4H708.49v-15.4h17V21.64h-17V6.24h22.62l94.17,102,3.71,5.07L828.4,107V21.64h-14V6.24h47.18v15.4h-17Z"/><text class="cls-3" transform="translate(0 229.02)">Autrice de l’imaginaire</text></g></g></svg>