<svg xmlns="http://www.w3.org/2000/svg" viewBox="0 0 427.69 2236"><defs><style>.cls-1{fill:none;stroke:#000;stroke-miterlimit:10;stroke-width:10px;}</style></defs><title>books_1</title><g id="Calque_2" data-name="Calque 2"><g id="Calque_1-2" data-name="Calque 1"><path class="cls-1" d="M214.39,0V376.73a32.21,32.21,0,0,1-19.08,29.4C166.59,419,110,440.86,57.17,441.18-1.68,441.54-14.61,391,38.39,367c32-14.48,96.43-29.74,219,37,0,0,110.4,31.35,158,5,42.28-23.41-109.92-94-176.39-20-6.3,7-13.53,16.36-17,25.68a27.42,27.42,0,0,0-1.67,8.83l-.51,17.1a42.05,42.05,0,0,0-.85,8.45l.46,370L187.25,971.38l9.58-23.72C203.14,932,224,928.19,234.89,941c8.75,10.25,6.5,24-37.5,38l2,163s-49,60,0,75,60-85,30-80-34,40-23,44c7.52,2.73,21.53-3.94,32-15,7.73-8.17,3.78,12.53.42,30.41-2.59,13.81-6.35,29.29-22.42,31.59l-13.51,2,3.51,124s-54,92,0,92c45.49,0,34.21-50.38,29.52-66.26-.87-3-3.52-5.74-6-6.3l-7.5-2.63a10,10,0,0,0-12.26,5c-5.35,10.56-11.55,25.8-3.77,31.24,9.78,6.85,15.69,5.82,31-2.43a5.19,5.19,0,0,1,7.64,4.83c-.45,9-1.52,21.18-2.59,22.6-6,8-17,27-31,25-9.8-1.4,5,122,5,122l-29,72.18-22,54.82,34-57s28,1,37-27-23,9-30,18,9,52,19,52-4,130-4,130-43,16-32,38,61,52,52,76c-5.66,15.1-39,28-52,21s57.13-93.44,61-100c13-22-4-2-4-2l-57,102,17,11v268"/></g></g></svg>