<svg xmlns="http://www.w3.org/2000/svg" xmlns:xlink="http://www.w3.org/1999/xlink" viewBox="0 0 2868.25 2908.58"><defs><style>.cls-1{isolation:isolate;}.cls-2{fill:#f4f7fa;}.cls-3{fill:url(#linear-gradient);}.cls-4{fill:url(#linear-gradient-2);}.cls-5{fill:url(#linear-gradient-3);}.cls-6{fill:url(#linear-gradient-4);}.cls-7{fill:url(#linear-gradient-5);}.cls-8{fill:url(#linear-gradient-6);}.cls-14,.cls-17,.cls-47,.cls-9{fill:#fff;}.cls-9{opacity:0.68;}.cls-10{fill:url(#linear-gradient-7);}.cls-11{fill:url(#linear-gradient-8);}.cls-12{fill:url(#linear-gradient-9);}.cls-13{fill:url(#linear-gradient-10);}.cls-15,.cls-16{opacity:0.5;}.cls-15{fill:url(#linear-gradient-11);}.cls-16{fill:url(#linear-gradient-12);}.cls-17{opacity:0.61;}.cls-18{fill:url(#linear-gradient-13);}.cls-19{fill:url(#linear-gradient-14);}.cls-20{fill:url(#linear-gradient-15);}.cls-21{fill:url(#linear-gradient-16);}.cls-22{fill:url(#linear-gradient-17);}.cls-23{fill:url(#linear-gradient-18);}.cls-24{fill:url(#linear-gradient-19);}.cls-25{fill:url(#linear-gradient-20);}.cls-26{fill:url(#linear-gradient-21);}.cls-27{fill:url(#linear-gradient-22);}.cls-28{fill:url(#linear-gradient-23);}.cls-29,.cls-32,.cls-39{opacity:0.3;mix-blend-mode:multiply;}.cls-29{fill:url(#linear-gradient-24);}.cls-30{fill:url(#linear-gradient-25);}.cls-31{fill:url(#linear-gradient-26);}.cls-33{fill:url(#linear-gradient-27);}.cls-34{fill:url(#linear-gradient-28);}.cls-35{fill:url(#linear-gradient-29);}.cls-36{fill:url(#linear-gradient-30);}.cls-37{fill:url(#linear-gradient-31);}.cls-38{fill:url(#linear-gradient-32);}.cls-39{fill:url(#linear-gradient-33);}.cls-40{fill:url(#linear-gradient-34);}.cls-41{fill:url(#linear-gradient-35);}.cls-42{fill:url(#linear-gradient-36);}.cls-43{fill:url(#linear-gradient-37);}.cls-44{fill:url(#linear-gradient-38);}.cls-45{fill:url(#linear-gradient-39);}.cls-46{fill:url(#linear-gradient-40);}.cls-47{opacity:0.48;mix-blend-mode:soft-light;}.cls-48{fill:url(#linear-gradient-41);}.cls-49{fill:url(#linear-gradient-42);}</style><linearGradient id="linear-gradient" x1="358.83" y1="1497.33" x2="812.66" y2="1449.92" gradientUnits="userSpaceOnUse"><stop offset="0" stop-color="#26264f"/><stop offset="1" stop-color="#444b8c"/></linearGradient><linearGradient id="linear-gradient-2" x1="1326.25" y1="2883.8" x2="1422.41" y2="2746.07" gradientUnits="userSpaceOnUse"><stop offset="0" stop-color="#444b8c"/><stop offset="1" stop-color="#26264f"/></linearGradient><linearGradient id="linear-gradient-3" x1="1617.33" y1="2848.5" x2="1470.17" y2="2049.63" xlink:href="#linear-gradient-2"/><linearGradient id="linear-gradient-4" x1="1980.35" y1="643.17" x2="2716.78" y2="-407.88" xlink:href="#linear-gradient-2"/><linearGradient id="linear-gradient-5" x1="1660.49" y1="767.97" x2="739.31" y2="3693.76" xlink:href="#linear-gradient-2"/><linearGradient id="linear-gradient-6" x1="2106.6" y1="279.21" x2="-74.41" y2="3890.77" gradientUnits="userSpaceOnUse"><stop offset="0" stop-color="#ff9085"/><stop offset="1" stop-color="#fb6fbb"/></linearGradient><linearGradient id="linear-gradient-7" x1="1482.38" y1="735.36" x2="1431.42" y2="1157.18" xlink:href="#linear-gradient-2"/><linearGradient id="linear-gradient-8" x1="2585.21" y1="509.63" x2="2480.03" y2="732.37" xlink:href="#linear-gradient-6"/><linearGradient id="linear-gradient-9" x1="2627.47" y1="532.25" x2="2522.63" y2="754.26" xlink:href="#linear-gradient-6"/><linearGradient id="linear-gradient-10" x1="2669.5" y1="554.72" x2="2565" y2="776" xlink:href="#linear-gradient-6"/><linearGradient id="linear-gradient-11" x1="1021.46" y1="-27.93" x2="2382.05" y2="1612.14" gradientUnits="userSpaceOnUse"><stop offset="0" stop-color="#e38ddd"/><stop offset="1" stop-color="#9571f6"/></linearGradient><linearGradient id="linear-gradient-12" x1="2518.29" y1="-495.67" x2="-774.54" y2="3037.03" xlink:href="#linear-gradient-11"/><linearGradient id="linear-gradient-13" x1="2599.9" y1="1134.3" x2="2742.01" y2="1713.24" gradientUnits="userSpaceOnUse"><stop offset="0" stop-color="#aa80f9"/><stop offset="1" stop-color="#6165d7"/></linearGradient><linearGradient id="linear-gradient-14" x1="2597.56" y1="1047.12" x2="2490.95" y2="831.96" gradientUnits="userSpaceOnUse"><stop offset="0" stop-color="#f36f56"/><stop offset="1" stop-color="#ffc444"/></linearGradient><linearGradient id="linear-gradient-15" x1="1301.16" y1="1049.79" x2="1287.52" y2="886.21" gradientTransform="matrix(1, 0.05, -0.05, 1, 1244.57, -34.53)" gradientUnits="userSpaceOnUse"><stop offset="0" stop-color="#ab316d"/><stop offset="1" stop-color="#792d3d"/></linearGradient><linearGradient id="linear-gradient-16" x1="1252.62" y1="808.62" x2="1265.65" y2="1290.71" gradientTransform="matrix(1, 0.05, -0.05, 1, 1244.57, -34.53)" xlink:href="#linear-gradient-14"/><linearGradient id="linear-gradient-17" x1="478.52" y1="876.62" x2="607.09" y2="1012.14" gradientTransform="matrix(-0.97, -0.26, -0.26, 0.97, 3266.45, 283.53)" xlink:href="#linear-gradient-14"/><linearGradient id="linear-gradient-18" x1="1681.37" y1="1104" x2="1601.89" y2="976.06" xlink:href="#linear-gradient-14"/><linearGradient id="linear-gradient-19" x1="1039.49" y1="2945.83" x2="953.09" y2="2660.95" gradientTransform="matrix(-1, 0.01, 0.01, 1, 3113.14, -9.29)" xlink:href="#linear-gradient-2"/><linearGradient id="linear-gradient-20" x1="-473.17" y1="2341.71" x2="-473.17" y2="1884.08" gradientTransform="matrix(-0.98, -0.19, -0.19, 0.98, 2152.57, 503.28)" gradientUnits="userSpaceOnUse"><stop offset="0" stop-color="#ffc444"/><stop offset="1" stop-color="#f36f56"/></linearGradient><linearGradient id="linear-gradient-21" x1="445.21" y1="2830.32" x2="445.21" y2="2372.65" gradientTransform="matrix(-1, 0.01, 0.01, 1, 3113.14, -9.29)" xlink:href="#linear-gradient-20"/><linearGradient id="linear-gradient-22" x1="477.03" y1="2847.62" x2="390.63" y2="2562.75" gradientTransform="matrix(-1, 0.01, 0.01, 1, 3113.14, -9.29)" xlink:href="#linear-gradient-2"/><linearGradient id="linear-gradient-23" x1="1932.63" y1="2200.5" x2="1890.6" y2="3146.17" gradientTransform="matrix(-0.98, 0.21, 0.21, 0.98, 3962.53, -690.55)" gradientUnits="userSpaceOnUse"><stop offset="0" stop-color="#311944"/><stop offset="1" stop-color="#893976"/></linearGradient><linearGradient id="linear-gradient-24" x1="1932.63" y1="2200.5" x2="1890.6" y2="3146.16" gradientTransform="matrix(-0.98, 0.21, 0.21, 0.98, 3962.53, -690.55)" xlink:href="#linear-gradient-13"/><linearGradient id="linear-gradient-25" x1="1371.76" y1="2283.68" x2="439.35" y2="2241.3" gradientTransform="matrix(-1, 0.01, 0.01, 1, 3113.14, -9.29)" xlink:href="#linear-gradient-23"/><linearGradient id="linear-gradient-26" x1="2156.09" y1="1243.23" x2="2298.2" y2="1822.17" xlink:href="#linear-gradient-13"/><linearGradient id="linear-gradient-27" x1="2015.82" y1="1238.68" x2="2550.81" y2="2052.81" xlink:href="#linear-gradient-13"/><linearGradient id="linear-gradient-28" x1="-315.66" y1="2635.83" x2="-289.29" y2="2971.53" gradientTransform="matrix(-1, 0, 0, 1, 646.98, 0)" gradientUnits="userSpaceOnUse"><stop offset="0" stop-color="#311944"/><stop offset="1" stop-color="#a03976"/></linearGradient><linearGradient id="linear-gradient-29" x1="-247.57" y1="2822.73" x2="-252.36" y2="2475.04" gradientTransform="matrix(-1, 0, 0, 1, 646.98, 0)" xlink:href="#linear-gradient-20"/><linearGradient id="linear-gradient-30" x1="182.8" y1="2596.67" x2="209.17" y2="2932.37" xlink:href="#linear-gradient-28"/><linearGradient id="linear-gradient-31" x1="209.25" y1="2816.43" x2="204.45" y2="2468.73" gradientTransform="matrix(-1, 0, 0, 1, 646.98, 0)" xlink:href="#linear-gradient-20"/><linearGradient id="linear-gradient-32" x1="-330.55" y1="2259.48" x2="-73.47" y2="2259.48" gradientTransform="matrix(-1, 0, 0, 1, 646.98, 0)" xlink:href="#linear-gradient-13"/><linearGradient id="linear-gradient-33" x1="-330.55" y1="2259.49" x2="-73.47" y2="2259.49" gradientTransform="matrix(-1, 0, 0, 1, 646.98, 0)" gradientUnits="userSpaceOnUse"><stop offset="0" stop-color="#444b8c"/><stop offset="1" stop-color="#3e4177"/></linearGradient><linearGradient id="linear-gradient-34" x1="-259.18" y1="2234.14" x2="258.34" y2="2234.14" gradientTransform="matrix(-1, 0, 0, 1, 646.98, 0)" xlink:href="#linear-gradient-13"/><linearGradient id="linear-gradient-35" x1="870" y1="2213.17" x2="1060.63" y2="1134.13" gradientTransform="matrix(1, 0, 0, 1, 0, 0)" xlink:href="#linear-gradient-23"/><linearGradient id="linear-gradient-36" x1="-347.25" y1="1314.79" x2="-347.25" y2="1107.07" gradientTransform="matrix(-1, 0, 0, 1, 646.98, 0)" xlink:href="#linear-gradient-20"/><linearGradient id="linear-gradient-37" x1="-745.22" y1="2003.37" x2="-651.58" y2="2003.37" gradientTransform="matrix(-1, 0, 0, 1, 646.98, 0)" xlink:href="#linear-gradient-20"/><linearGradient id="linear-gradient-38" x1="-2153.43" y1="267.46" x2="-2241.64" y2="43.43" gradientTransform="matrix(-0.88, -0.48, -0.48, 0.88, -803.88, -34.49)" xlink:href="#linear-gradient-33"/><linearGradient id="linear-gradient-39" x1="-494.07" y1="1254.93" x2="-396.96" y2="1066.1" gradientTransform="matrix(-1, 0, 0, 1, 646.98, 0)" xlink:href="#linear-gradient-20"/><linearGradient id="linear-gradient-40" x1="1012.62" y1="1803.81" x2="1794.27" y2="812.8" gradientTransform="matrix(1, 0, 0, 1, 0, 0)" xlink:href="#linear-gradient-20"/><linearGradient id="linear-gradient-41" x1="424.94" y1="2134.55" x2="615.57" y2="1055.5" gradientTransform="matrix(1, 0, 0, 1, 0, 0)" xlink:href="#linear-gradient-23"/><linearGradient id="linear-gradient-42" x1="433.12" y1="1829.19" x2="453.85" y2="1711.86" gradientTransform="matrix(1, 0, 0, 1, 0, 0)" xlink:href="#linear-gradient-20"/></defs><title>Fichier 1</title><g class="cls-1"><g id="Calque_2" data-name="Calque 2"><g id="Illustration"><path class="cls-2" d="M689.5,174.82c-96.33,140.42,16.62,368.09-126.32,473.7C424,751.33,253.11,582.81,122,671.31c-194.53,131.28-159,732,125.4,1105.2,85.54,112.24,157,155.91,188.66,282.85,68,272.57-170.91,434.71-125.45,569.52,102.35,303.54,1676.44,558.25,2308-354,295-426.06,339.12-1041.28,75.56-1508.55C2217.94-78,905.66-140.27,689.5,174.82Z"/><path class="cls-3" d="M171.83,2440.86c-54.22,3.17-98.54-34.73-98.54-84.5V562.69c0-49.76,44.32-88.64,98.54-86.68L2731,568.88c41.46,1.5,75.06,37.9,75.06,81.14V2208.53c0,43.24-33.6,80.39-75.06,82.81Z"/><path class="cls-4" d="M1840.28,2639.39c-40.9-14.24-71.47-50.66-80.09-95.43l-59.54-309.14-509.27,19-62.68,322.06c-8.78,45.11,26.36,90.36,66.83,107l213.07,87.47a265.27,265.27,0,0,0,124.57,18.94l450.29-40.41c13.16-1.18,23.72-12,25.25-26s10.76-29.56-1.8-33.93Z"/><path class="cls-5" d="M1845.32,2620.59c-40.86-14.06-71.4-50-80-94.23l-59.48-305.26L1209,2239.86l-62.61,318c-8.77,44.54,14.43,89.2,54.86,105.6l212.85,86.37a267.81,267.81,0,0,0,124.45,18.71l449.83-39.91c13.15-1.17,23.7-11.89,25.23-25.64s-6.38-26.73-18.92-31.05Z"/><path class="cls-6" d="M192.09,2440.86c-54.22,3.17-98.54-34.73-98.54-84.5V562.69c0-49.76,44.32-88.64,98.54-86.68l2559.14,92.87c41.46,1.5,75.06,37.9,75.06,81.14V2208.53c0,43.24-33.6,80.39-75.06,82.81Z"/><path class="cls-7" d="M2751.23,605.54,192.09,517.83c-29-1-52.55,19.75-52.55,46.33V2353.87c0,26.59,23.56,46.81,52.55,45.17l2559.14-144.36c22.22-1.25,40.19-21.07,40.19-44.26V648.91C2791.42,625.72,2773.45,606.3,2751.23,605.54Z"/><path class="cls-8" d="M192.09,2246.55c-11.29.55-20.48-7.42-20.48-17.76V565.19c0-10.34,9.19-18.46,20.48-18.09l2559.14,84.1c8.67.28,15.71,7.88,15.71,16.93V2103.81c0,9.05-7,16.76-15.71,17.19Z"/><polygon class="cls-9" points="2664.08 2031.3 304.35 2134.93 304.35 795.73 2664.08 845.26 2664.08 2031.3"/><polygon class="cls-10" points="2664.08 804.75 304.35 749.98 304.35 635.61 2664.08 703.45 2664.08 804.75"/><path class="cls-11" d="M2484.85,749.44a12.52,12.52,0,0,1-12.72,12.78,13.34,13.34,0,0,1-12.74-13.44A12.52,12.52,0,0,1,2472.13,736,13.33,13.33,0,0,1,2484.85,749.44Z"/><path class="cls-12" d="M2537.08,750.8a12.47,12.47,0,0,1-12.65,12.74,13.29,13.29,0,0,1-12.68-13.4,12.49,12.49,0,0,1,12.68-12.74A13.29,13.29,0,0,1,2537.08,750.8Z"/><path class="cls-13" d="M2589,752.15a12.42,12.42,0,0,1-12.58,12.7,13.21,13.21,0,0,1-12.6-13.35,12.42,12.42,0,0,1,12.6-12.71A13.23,13.23,0,0,1,2589,752.15Z"/><polygon class="cls-9" points="2186.49 1817.56 355.81 1875.04 355.81 830.52 2186.49 865.95 2186.49 1817.56"/><polygon class="cls-9" points="2638.87 1142.59 2218.5 1140.61 2218.5 866.57 2638.87 874.7 2638.87 1142.59"/><polygon class="cls-14" points="2638.87 1191.67 2218.5 1190.81 2218.5 1170.29 2638.87 1171.61 2638.87 1191.67"/><polygon class="cls-14" points="2482.46 1226.29 2218.5 1226.26 2218.5 1205.74 2482.46 1206.06 2482.46 1226.29"/><polygon class="cls-9" points="2638.87 1535.58 2218.5 1542.63 2218.5 1268.58 2638.87 1267.69 2638.87 1535.58"/><polygon class="cls-14" points="2638.87 1584.65 2218.5 1592.83 2218.5 1572.31 2638.87 1564.6 2638.87 1584.65"/><polygon class="cls-14" points="2482.46 1622.64 2218.5 1628.27 2218.5 1607.75 2482.46 1602.41 2482.46 1622.64"/><polygon class="cls-9" points="2638.87 1928.57 2218.5 1944.64 2218.5 1670.6 2638.87 1660.68 2638.87 1928.57"/><polygon class="cls-14" points="2638.87 1977.64 2218.5 1994.85 2218.5 1974.32 2638.87 1957.58 2638.87 1977.64"/><polygon class="cls-14" points="2482.46 2018.99 2218.5 2030.29 2218.5 2009.77 2482.46 1998.76 2482.46 2018.99"/><polygon class="cls-14" points="1622.69 1945.7 355.81 1992.73 355.81 1924.06 1622.69 1881.26 1622.69 1945.7"/><polygon class="cls-14" points="2186.49 1924.78 2005.73 1931.49 2005.73 1868.32 2186.49 1862.22 2186.49 1924.78"/><polygon class="cls-14" points="1977.81 1932.52 1792.99 1939.38 1792.99 1875.51 1977.81 1869.27 1977.81 1932.52"/><polygon class="cls-14" points="935.41 2051.86 355.81 2075.71 355.81 2041.38 935.41 2018.49 935.41 2051.86"/><path class="cls-15" d="M2385.53,173.84,679,150.09c-67.25-.94-122,50.06-122,113.92V876.08c0,63.86,54.71,115.07,122,114.39l1706.51-17.3c60.61-.61,109.59-50,109.59-110.34V284.6C2495.12,224.27,2446.14,174.69,2385.53,173.84Z"/><path class="cls-16" d="M679,910.77c-20.68.16-37.52-15.66-37.52-35.27V264.91c0-19.61,16.84-35.37,37.52-35.13l1706.5,19.87a34.31,34.31,0,0,1,33.86,34.15V863.35a34.17,34.17,0,0,1-33.86,34Z"/><path class="cls-17" d="M1239.08,290.35l-482.82-4.86c-24.28-.25-44,18.27-44,41.36V792.61c0,23.08,19.71,41.69,44,41.55l482.82-2.74c23.59-.13,42.68-18.65,42.68-41.36V331.9C1281.76,309.19,1262.67,290.59,1239.08,290.35Z"/><polygon class="cls-14" points="2308.36 498.65 1443.37 495.08 1443.37 440.51 2308.36 445.47 2308.36 498.65"/><polygon class="cls-14" points="2308.36 589.83 1443.37 588.62 1443.37 534.05 2308.36 536.64 2308.36 589.83"/><polygon class="cls-14" points="2067.14 681.32 1443.37 682.16 1443.37 627.59 2067.14 627.75 2067.14 681.32"/><path class="cls-18" d="M2528.27,843.36l-29.07,40.71c42.59,31.65,93.87,80.5,93,139.56-1.26,89.24-120.31,118.11-127.94,209.35-7.72,92.43,102.53,205.81,174.46,191.9,91.68-17.74,173.19-252.33,87.23-418.7C2671.29,900.33,2566.89,857.15,2528.27,843.36Z"/><path class="cls-19" d="M2521.2,879s-31.31-10.78-40.41-21.37-1.4-47.49-1-76.89,13.89,13.2,17,22.84.94,32,24.94,49.4Z"/><path class="cls-20" d="M2448.39,1059c-11.33-22.31-16-22.18-18.78-34-6.34-26.84,10-60.92,23.91-61.39,8.94-.31,9.69,13.6,28.63,35.29,23.21,26.56,37.29,23.07,50.95,46.13,3.19,5.39,17.57,29.67,8.73,47.79-11.29,23.12-55.78,26.79-74.37,9C2458.64,1093.3,2462.34,1086.43,2448.39,1059Z"/><path class="cls-21" d="M2481.74,1083s-7.95,42.4-2.29,76.88c5.11,31.16,62.83,63.53,73.9,72.81s-29.35,19.35-66.42,14.5-138.55-37.32-154-55.42,18-9.18,46-12.61,54.87-50.48,55.69-74.49S2481.74,1083,2481.74,1083Z"/><path class="cls-22" d="M2469.65,1114.67s-28.37,12.46-53.51-7.64c-22.5-18,11-73.28,33.85-74,7.64-.24,18.78,5.23,25.37,13.24,3.88,4.73,4.11,7.88,10.62,15.48,6,7,8.63,7.64,9.54,11,1.14,4.25-.82,11.37-16.23,23.61,7.68-1.42,14.3.6,16.86,5.08a9.83,9.83,0,0,1,1,5.25C2496.24,1115.1,2485.34,1119,2469.65,1114.67Z"/><path class="cls-23" d="M1642.85,993.63s-17,3.4-22.77-29.36c-4.5-25.67-10.36-32.79-14.59-26.49s-.14,20.63-.14,20.63-27.14-10.54-43.91-30.92-15.44,1.25-13.2,13.58,29,43.69,39.39,47.67,32.45,29.72,32.45,29.72Z"/><path class="cls-24" d="M2196.69,2811.38c8.84,18,6.36,25.78,4.16,29.19-6.46,10-22,.56-62.55,5.36a68,68,0,0,1-25.16-.87c-9.71-2.29-21.15-7.46-20.66-10.06.18-.94,1.9-1.32,2.56-1.46,11.25-2.4,81.71-24,81.71-24Z"/><path class="cls-25" d="M2212,2775.3,2200,2807.1a13.4,13.4,0,0,1-11.52,8.66c-5.27.39-11-1.12-11.76-9.26-1-11.13,4.9-39.32,4.9-39.32Z"/><polygon class="cls-26" points="2685.03 2722.16 2702.03 2768.58 2726.74 2764.65 2721.01 2721.66 2685.03 2722.16"/><path class="cls-27" d="M2709.73,2794.15c11.95-14.19,22.63-12.9,24.79-22.65,1.69-7.67-3-17.06-10.08-20.63-10-5-22,2.81-24.73,4.58-18.49,12-13.46,30.83-30.89,39-3.52,1.64-9.08,3.38-14.94,8.88-2.49,2.33-8.66,8.11-7.21,12.09,1.67,4.6,12.66,4.44,23.12,4.29,12.54-.18,18.82-.26,24.85-4C2703,2810.44,2700.5,2805.1,2709.73,2794.15Z"/><path class="cls-28" d="M2646.14,1753a1330.2,1330.2,0,0,1,15.59,240.89c-1.95,72.07-8.3,85.63-4.08,134.44,9.2,106.23,45.58,115,73.41,231.87,30.72,129,15.07,239,8.7,281a758.73,758.73,0,0,1-18.74,88c-10,12.61-29,12-49,11.57-28.78-116.88-58-226.47-86.8-343.35Q2502,2137,2418.72,1876.61Z"/><path class="cls-29" d="M2672,2740.73c-28.78-116.88-58-226.47-86.8-343.35Q2502,2137,2418.72,1876.61L2646.14,1753c1,6.15,1.73,12.1,2.59,18.14-95.12,119-103,200.93-92.14,253.82,13.15,64.15,54.22,89.61,64.47,184.24,7.33,67.67-10.58,83.11.47,143.35,14.25,77.57,55.54,115.08,80,156.93,23.62,40.45,40.46,100.79,26.19,193.62-2.32,9.75-4.6,18.5-6.68,26C2711,2741.76,2692,2741.12,2672,2740.73Z"/><path class="cls-30" d="M2514.08,1865.83c-1.82,44.51-9.22,111.84-38.15,187.09-38.77,100.87-81.26,125-98.85,209.34-18.37,88,15.28,122.5,17,203.56,1.6,75.92-25,184.45-156.56,319.81l-64-5.81a1813,1813,0,0,0,51.25-296c5.72-64.14,6.5-111,6.9-128.55,2.43-106.42,17.57-287.38,74-613.87Z"/><path class="cls-31" d="M1603.66,1006.18l40.7-23.26c150.22,147.67,281.13,188.38,373.21,198.13,139.08,14.72,236.21-41.83,421.71-3.32,58.43,12.14,160.29,34.74,216.77,118,14.84,21.88,20.12,38.44,44.77,195.42,31.52,200.65,32.64,235.67,28.19,278.87-8.13,79.07-13.05,127-49.51,169.39-96.81,112.62-302.56,54.55-328.36,46.91-47.65-14.11-121.72-36.06-151.15-99-21.81-46.69,1.61-74.18,8.91-165.07,3.68-45.78,15.17-188.94-52.8-274.07-48.85-61.18-116.77-64.87-183.24-85.66C1867.66,1329.58,1732.09,1243.23,1603.66,1006.18Z"/><g class="cls-32"><path class="cls-33" d="M2592.49,1885.77c-56.55-51-89.95-35.37-124.42-75.88-79.67-93.66,38.88-247.79-31-321.71-56-59.18-162.9,6.93-224-63.22-40.53-46.53-4-87.7-40-135.84-57-76.18-184.69-21.61-351.79-69.39a530.64,530.64,0,0,1-104.61-42.61c91.76,111.75,181.63,162,256.23,185.36,66.47,20.79,134.39,24.48,183.24,85.66,68,85.13,56.48,228.29,52.8,274.07-7.3,90.89-30.72,118.38-8.91,165.07,29.43,63,103.5,84.92,151.15,99,23.58,7,197.51,56,301.16-21.62C2638.23,1937.2,2619.06,1909.74,2592.49,1885.77Z"/></g><path class="cls-34" d="M911.2,2803.25s106.17,48.26,107.91,56-68.28-2.58-96.87-1.47-52.09-7.34-49.51-19.44,12.6-42.56,12.6-42.56Z"/><path class="cls-35" d="M915.08,2764.09l-6.46,47.8s-16.81,6-28.1-1.09l-4.81-52.43Z"/><path class="cls-36" d="M415.05,2765.24l-12.35,19.82a23.65,23.65,0,0,0-2.82,18.54c4.32,16.49,12.94,48.62,16.7,57,5.12,11.41,73.84,18.19,73.84,18.19s6.12-8.62-8.14-19-23.44-12.05-28.47-27.42-8.4-58.84-8.4-58.84Z"/><path class="cls-37" d="M466.46,2714.85c-4.51,3.6-26.58,70.58-26.58,70.58s-7.14,9.13-20.71-4.35-6.14-6-6.14-6l2.54-65.88Z"/><path class="cls-38" d="M973.5,1803.66c5.6,142.6,5.83,297.53-2.37,463-9.24,186.38-27.81,358.64-51.2,514.79-8.7.28-17.84.33-27.39.06q-9.66-.27-18.73-.91a1186.12,1186.12,0,0,1-39.34-125.82A1211.14,1211.14,0,0,1,807,2507.5c-20.45-161.52,3.52-175.61-13.08-295.31-14.69-106-35.59-110.15-60.13-260.66-26.62-163.31-6.8-187.81,2.84-196.66C777.65,1717.19,874,1742.84,973.5,1803.66Z"/><path class="cls-39" d="M736.63,1754.87c39.12-35.94,128.61-14.19,223.12,40.66C851,1913,839.17,1989.21,852.2,2038.65c14.73,55.88,59.52,72,59.35,133.08-.21,75.09-68,95-66.54,174.45,1,52.54,30.73,52,37.77,116.89,8.32,76.79-30.59,103.25-18,160.06,5.42,24.44,20.9,56.38,65,89.28-3.18,23.33-6.44,46.43-9.84,69.09-8.69.27-17.83.32-27.38.05q-9.66-.27-18.73-.91a1186.12,1186.12,0,0,1-39.34-125.82A1211.14,1211.14,0,0,1,807,2507.5c-20.45-161.52,3.52-175.61-13.08-295.31-14.69-106-35.59-110.15-60.13-260.66C707.18,1788.21,727,1763.71,736.63,1754.87Z"/><path class="cls-40" d="M906.15,1801.26a3202.58,3202.58,0,0,0-439,939.54,57.12,57.12,0,0,1-31.33,4.86c-20.22-2.67-32.34-15.58-35.5-19.18a922.18,922.18,0,0,1-8.14-227.38c3.21-36.2,8.9-96.48,32-170.91,25.85-83.36,43.62-88,77.33-176.24,35-91.54,26.52-114.39,60-228.95a1511.72,1511.72,0,0,1,74.84-200.87Z"/><path class="cls-41" d="M1338.37,1975.11c-18,28-80,24.72-122.29,9.59-98.95-35.38-162.28-161.23-167.85-261.37-1.2-21.5-.44-42.53-4.8-43.16-11-1.62-39.11,128.39-61.2,238.62-17.77,6.5-44.7,13.4-75.48,8.36-50.36-8.25-56.36-39.55-112.7-60-32.87-11.9-65.07-11.93-129.48-12-72.71-.06-74.72,8.91-88.72,2.4a74.17,74.17,0,0,1-6.45-4c-51.78-37.17,96.36-319.73,53.71-580.43-4.74-29-12-58.73,4.17-87.74,41.82-75,207.11-85.52,309.51-36.19,28.07,13.52,75.08,43.1,117.06,74.27,16.78,12.46,34.23,26.4,52.43,42.31,44.15,38.56,74.89,65.4,100.21,102.66,102.11,150.24-15.9,275.45,76.73,467.58C1315.07,1902.09,1357.23,1945.79,1338.37,1975.11Z"/><path class="cls-42" d="M1063.82,1122.13s-26.58,30.19-55.16,45.83c-25.82,14.14-82.74-9.68-95.91-12.47s2.63,32.66,27.48,57.11,107,80.34,129.13,81.27-3.57-18.46-17.17-41,5.57-69.29,22.73-83.68S1063.82,1122.13,1063.82,1122.13Z"/><path class="cls-43" d="M1298.56,1974.1s38.2,18.24,65.23,22.06,32.91,25.42,25.41,33.35-50.53-.75-64.92-8.84S1298.56,1974.1,1298.56,1974.1Z"/><path class="cls-44" d="M1124.91,1145.74c30.16-2.29,60.64-39.44,54.48-55.65-1.76-4.64-5.68-5.37-64.73-15.1-29.32-4.83-44-6.82-54.11,1.28-6.19,5-11,13.77-12.54,22.1-.79,4.29-.83,10.19-.09,22,.65,10.44.46,10,.73,13.07.65,7.4,2.67,20.43,9.89,38.48a94.69,94.69,0,0,1,12-11.12,83.53,83.53,0,0,1,18.28-10.78C1103.82,1143.94,1115.12,1146.49,1124.91,1145.74Z"/><path class="cls-45" d="M1047.52,1151.75s1.34,28.86,28.53,41.53c24.36,11.35,56.68-39.49,47.79-58.91-3-6.48-12.16-13.52-21.57-15.7-5.56-1.29-8.29-.18-17.33-2.46-8.34-2.11-10-4-13.18-3.4-4,.81-9.16,5.39-13,23.33-2-7-6.43-11.69-11.23-12a9.2,9.2,0,0,0-4.8,1.34C1036.14,1129.72,1037.43,1140.42,1047.52,1151.75Z"/><path class="cls-46" d="M1693.68,1573.71,357.15,1587c-14,.17-25.34,10.94-25.34,24v397.83c0,13.12,11.35,23.44,25.34,23.06l1336.53-41a23,23,0,0,0,22.25-22.84V1595.67A21.91,21.91,0,0,0,1693.68,1573.71Z"/><path class="cls-47" d="M1655.05,1614.67,401,1629.53c-12.77.18-23.13,10-23.13,22v315c0,12,10.36,21.43,23.13,21.11l1254.08-36.24a21,21,0,0,0,20.42-20.89V1634.76A20.06,20.06,0,0,0,1655.05,1614.67Z"/><path class="cls-48" d="M396.82,1734.22c-40.77-20-128.8-71.16-155.86-165.45-45.06-157,115.19-306.68,197.92-362.7,94.85-64.23,190.16-74.6,248.08-80.91,71.87-7.82,115.73-12.59,148.67,14.39,85.2,69.78,34,300-50.35,323.71-27.62,7.76-38.06-12.43-95.92-26.37-18.84-4.54-159.47-38.42-232.59,36-51.18,52.06-57.72,145.37-21.58,232.6Z"/><path class="cls-49" d="M405.05,1728.05l21.59-16.19s13.54,9.38,30.09,8.1c9-.7,21,4.72,23.7,7.58s15.27,9.75-2.73,8-20.89,3.22-18.38,12.21,17.53,34.17,25.15,39.57-14.25,9-23.24,5.69-23.38-9.29-33.87-28.77C423.53,1757.08,405.05,1728.05,405.05,1728.05Z"/></g></g></g></svg>